<svg width="143" height="192" viewBox="0 0 143 192" fill="none" xmlns="http://www.w3.org/2000/svg">
<path d="M45.6195 79.968L2.9955 79.68C1.8435 76.608 1.2675 71.424 1.2675 64.128C1.2675 46.464 7.5075 31.488 19.9875 19.2C32.6595 6.91199 49.7475 0.76799 71.2515 0.76799C92.1795 0.76799 108.98 6.71999 121.652 18.624C134.324 30.336 140.66 44.832 140.66 62.112C140.66 86.304 128.372 105.696 103.796 120.288L68.3715 141.312C62.0355 145.344 57.8115 149.568 55.6995 153.984H142.1V192H0.1155C0.1155 173.568 3.3795 157.632 9.9075 144.192C16.6275 130.56 28.0515 119.04 44.1795 109.632L74.7075 91.776C82.1955 87.36 87.4755 83.04 90.5475 78.816C93.6195 74.4 95.1555 69.12 95.1555 62.976C95.1555 56.64 92.9475 51.36 88.5315 47.136C84.3075 42.912 78.1635 40.8 70.0995 40.8C61.6515 40.8 55.1235 43.392 50.5155 48.576C46.0995 53.76 43.8915 60.384 43.8915 68.448C43.8915 72.48 44.4675 76.32 45.6195 79.968Z" fill="#FF9D56" fill-opacity="0.1"/>
</svg>
