<svg width="149" height="192" viewBox="0 0 149 192" fill="none" xmlns="http://www.w3.org/2000/svg">
<path d="M58.442 105.784L38.858 75.832L84.938 38.104H6.89V0.087986H141.674V35.224L95.594 70.936C110.378 71.896 122.762 77.752 132.746 88.504C142.922 99.064 148.01 112.216 148.01 127.96C148.01 145.24 141.29 160.12 127.85 172.6C114.602 184.888 96.842 191.032 74.57 191.032C53.642 191.032 36.458 185.272 23.018 173.752C9.578 162.04 2.09 147.832 0.554 131.128L44.33 123.064C44.714 131.512 47.594 138.52 52.97 144.088C58.538 149.656 65.642 152.44 74.282 152.44C82.73 152.44 89.45 149.944 94.442 144.952C99.626 139.96 102.218 133.912 102.218 126.808C102.218 118.552 99.53 112.312 94.154 108.088C88.778 103.672 82.442 101.464 75.146 101.464C69.386 101.464 63.818 102.904 58.442 105.784Z" fill="#AF8FEF" fill-opacity="0.1"/>
</svg>
