<svg width="52" height="52" viewBox="0 0 52 52" fill="none" xmlns="http://www.w3.org/2000/svg">
<path d="M24 4C10.7452 4 0 14.7452 0 28C0 41.2548 10.7452 52 24 52C37.2548 52 48 41.2548 48 28H24V4Z" fill="#B132FF"/>
<path d="M52 23.9998L28 23.9998V0C41.2548 0 51.9999 10.7451 52 23.9998Z" fill="#FF32EA"/>
<path d="M48 24C48 35.0457 39.0457 44 28 44C16.9543 44 8 35.0457 8 24C8 12.9543 16.9543 3.99997 28 3.99997C39.0457 3.99997 48 12.9543 48 24Z" fill="url(#paint0_linear)"/>
<defs>
<linearGradient id="paint0_linear" x1="28" y1="3.99997" x2="28" y2="44" gradientUnits="userSpaceOnUse">
<stop stop-color="white" stop-opacity="0.6"/>
<stop offset="1" stop-color="white" stop-opacity="0.1"/>
</linearGradient>
</defs>
</svg>
