<svg width="44" height="52" viewBox="0 0 44 52" fill="none" xmlns="http://www.w3.org/2000/svg">
<path fill-rule="evenodd" clip-rule="evenodd" d="M0.0299042 48.3175C1.67111 36.8108 10.8825 28 22 28C33.1175 28 42.3289 36.8108 43.9701 48.3175C44.2585 50.3396 42.4206 52 40.1883 52L3.81169 52C1.57944 52 -0.258513 50.3396 0.0299042 48.3175ZM8 45C8 39.4772 14.268 35 22 35C29.732 35 36 39.4772 36 45L8 45Z" fill="#4971FE"/>
<path fill-rule="evenodd" clip-rule="evenodd" d="M43.9597 3.9862C42.1983 15.3438 33.037 24 22 24C10.963 24 1.80167 15.3438 0.040261 3.9862C-0.298391 1.80255 1.54702 0 3.78282 0H40.2172C42.453 0 44.2984 1.80255 43.9597 3.9862ZM13 16C14.1046 16 15 15.1046 15 14C15 12.8954 14.1046 12 13 12C11.8954 12 11 12.8954 11 14C11 15.1046 11.8954 16 13 16ZM33 14C33 15.1046 32.1046 16 31 16C29.8954 16 29 15.1046 29 14C29 12.8954 29.8954 12 31 12C32.1046 12 33 12.8954 33 14ZM22 20C23.6569 20 25 18.6569 25 17C25 15.3431 23.6569 14 22 14C20.3431 14 19 15.3431 19 17C19 18.6569 20.3431 20 22 20Z" fill="#12D2C7"/>
<path d="M21.9999 20C31.1812 20 38.7569 13.8898 39.8614 5.99459C40.0145 4.90067 39.1045 4 37.9999 4H5.99994C4.89537 4 3.98541 4.90067 4.13844 5.99459C5.24296 13.8898 12.8187 20 21.9999 20Z" fill="url(#paint0_linear)"/>
<path d="M21.9999 28C12.8187 28 5.24296 34.1102 4.13845 42.0054C3.98541 43.0993 4.89537 44 5.99994 44L37.9999 44C39.1045 44 40.0145 43.0993 39.8614 42.0054C38.7569 34.1102 31.1812 28 21.9999 28Z" fill="url(#paint1_linear)"/>
<defs>
<linearGradient id="paint0_linear" x1="21.9999" y1="4" x2="21.9999" y2="44" gradientUnits="userSpaceOnUse">
<stop stop-color="white" stop-opacity="0.6"/>
<stop offset="1" stop-color="white" stop-opacity="0.1"/>
</linearGradient>
<linearGradient id="paint1_linear" x1="21.9999" y1="4" x2="21.9999" y2="44" gradientUnits="userSpaceOnUse">
<stop stop-color="white" stop-opacity="0.6"/>
<stop offset="1" stop-color="white" stop-opacity="0.1"/>
</linearGradient>
</defs>
</svg>
