<svg width="52" height="52" viewBox="0 0 52 52" fill="none" xmlns="http://www.w3.org/2000/svg">
<path d="M22 4H8C3.58172 4 0 7.58172 0 12V26H22V4Z" fill="#03B8B8"/>
<path d="M0 30V44C0 48.4183 3.58172 52 8 52H22V30H0Z" fill="#03B8B8"/>
<path d="M26 52V30H48V44C48 48.4183 44.4183 52 40 52H26Z" fill="#03B8B8"/>
<path d="M30 0H44C48.4183 0 52 3.58172 52 8V22H30V0Z" fill="#90D105"/>
<path d="M8 10C8 6.68629 10.6863 4 14 4H42C45.3137 4 48 6.68629 48 10V38C48 41.3137 45.3137 44 42 44H14C10.6863 44 8 41.3137 8 38V10Z" fill="url(#paint0_linear)"/>
<defs>
<linearGradient id="paint0_linear" x1="28" y1="4" x2="28" y2="44" gradientUnits="userSpaceOnUse">
<stop stop-color="white" stop-opacity="0.6"/>
<stop offset="1" stop-color="white" stop-opacity="0.1"/>
</linearGradient>
</defs>
</svg>
