<svg width="64" height="64" viewBox="0 0 64 64" fill="none" xmlns="http://www.w3.org/2000/svg">
<path d="M6 46V22H50C54.4183 22 58 25.5817 58 30H47C45.9498 30 44.0573 30.4108 42.3811 31.5423C40.5968 32.7466 39 34.8232 39 38C39 41.1768 40.5968 43.2534 42.3811 44.4577C44.0573 45.5892 45.9498 46 47 46H58C58 50.4183 54.4183 54 50 54H14C9.58172 54 6 50.4183 6 46Z" fill="#993516"/>
<path fill-rule="evenodd" clip-rule="evenodd" d="M47 34H58V42H47C46.7169 42 45.6094 41.8108 44.6189 41.1423C43.7365 40.5466 43 39.6232 43 38C43 36.3768 43.7365 35.4534 44.6189 34.8577C45.6094 34.1892 46.7169 34 47 34ZM47 40C48.1046 40 49 39.1046 49 38C49 36.8954 48.1046 36 47 36C45.8954 36 45 36.8954 45 38C45 39.1046 45.8954 40 47 40Z" fill="#993516"/>
<path d="M14 10H42C46.4183 10 50 13.5817 50 18H6C6 13.5817 9.58172 10 14 10Z" fill="#FF7A19"/>
<path d="M10 20V40C10 43.3137 12.6863 46 16 46H48C51.3137 46 54 43.3137 54 40V28C54 24.6863 51.3137 22 48 22H46V20C46 16.6863 43.3137 14 40 14H16C12.6863 14 10 16.6863 10 20Z" fill="url(#paint0_linear)"/>
<defs>
<linearGradient id="paint0_linear" x1="32" y1="14" x2="32" y2="46" gradientUnits="userSpaceOnUse">
<stop stop-color="white" stop-opacity="0.6"/>
<stop offset="1" stop-color="white" stop-opacity="0.1"/>
</linearGradient>
</defs>
</svg>
