<svg width="107" height="65" viewBox="0 0 107 65" fill="none" xmlns="http://www.w3.org/2000/svg">
<g clip-path="url(#clip0)">
<path d="M5.43223 30.5209V27.8909H4.74843V28.5516C4.0143 27.9681 3.37953 27.7373 2.47055 27.7373C0.878193 27.7373 -0.204346 28.8133 -0.204346 30.3974C-0.204346 31.0744 0.0316869 31.7514 0.429124 32.1363C0.74152 32.4589 1.33811 32.8592 1.91084 33.136L2.93133 33.6431C4.02602 34.1811 4.02602 34.1811 4.3241 34.4583C4.67294 34.7663 4.88467 35.2734 4.88467 35.7969C4.88467 36.9347 4.11236 37.6418 2.89315 37.6418C2.1972 37.6418 1.52468 37.3813 1.06433 36.9351C0.715487 36.6121 0.616562 36.3194 0.616562 35.6124V35.3657H-0.0668047V38.1502H0.61743V37.4895C1.4635 38.0884 2.08569 38.3046 2.99424 38.3046C4.73672 38.3046 5.9056 37.1505 5.9056 35.4429C5.9056 34.0897 5.30945 33.2278 3.90279 32.5211L2.57077 31.8432C1.62577 31.3662 1.46437 31.2739 1.2023 30.998C0.965838 30.7363 0.829165 30.3665 0.829165 29.9829C0.829165 29.0442 1.52555 28.398 2.54648 28.398C3.23114 28.398 3.96527 28.7211 4.37573 29.2132C4.67424 29.5513 4.74887 29.8439 4.74887 30.5205H5.4331L5.43223 30.5209ZM15.9444 28.5521H17.0516V27.8913H13.7789V28.5521H14.8735V37.489H13.7789V38.1497H17.0516V37.489H15.9444V28.5521ZM32.4137 35.6579L26.7272 27.8913H24.6862V28.5521H25.7814V37.489H24.6862V38.1497H27.6106V37.489H26.5155V29.5976L32.8242 38.1493H33.1474V28.5516H34.2425V27.8909H31.319V28.5516H32.4141V35.6579H32.4137ZM49.6037 27.8913H48.9195V28.8451C48.0856 28.0608 47.2894 27.7382 46.1817 27.7382C43.6313 27.7382 41.7778 29.9061 41.7778 32.921C41.7778 36.0895 43.7433 38.3046 46.5679 38.3046C47.9736 38.3046 48.7824 37.873 49.9652 36.5357L49.5413 35.9663C48.5963 37.1505 47.7502 37.6426 46.6676 37.6426C45.6467 37.6426 44.5893 37.0892 43.9672 36.2276C43.3823 35.4279 43.0213 34.121 43.0213 32.7979C43.0213 30.1833 44.3776 28.3993 46.3813 28.3993C47.0655 28.3993 47.7623 28.6456 48.2227 29.0459C48.6835 29.4458 48.8453 29.8302 48.9199 30.6913H49.6042V27.8922L49.6037 27.8913ZM59.902 37.2419V28.5521H61.0092V27.8913H57.736V28.5521H58.8316V37.489H57.736V38.1497H64.3441V35.6733H63.511V37.2419H59.902Z" fill="#1563A8"/>
<path fill-rule="evenodd" clip-rule="evenodd" d="M77.8283 34.5198H74.4805L76.0859 29.8287L77.8283 34.5198ZM78.0644 35.1806L78.9235 37.4888H77.903V38.1495H80.9888V37.4888H80.1166L76.5709 27.8911H76.085L72.7515 37.4888H71.9171V38.1495H74.3933V37.4888H73.4344L74.2436 35.1806H78.0639H78.0644Z" fill="#1563A8"/>
<path d="M90.5285 28.5518H91.6358V27.8911H88.363V28.5518H89.4582V37.4888H88.3635V38.1495H91.6358V37.4888H90.5281V28.5518" fill="#1563A8"/>
<path fill-rule="evenodd" clip-rule="evenodd" d="M101.436 28.552H102.331C103.116 28.552 103.551 28.6905 103.937 29.0754C104.297 29.4444 104.497 30.0287 104.497 30.7358C104.497 32.2439 103.688 32.9968 102.083 32.9968C101.859 32.9968 101.71 32.9968 101.436 32.9668V28.552ZM101.436 33.6589H102.058C102.643 33.6743 102.655 33.6897 102.829 33.966L103.19 34.6431L103.961 36.1044C104.807 37.7348 105.305 38.211 106.176 38.211C106.376 38.211 106.5 38.1964 106.761 38.1496V37.4889C106.15 37.519 105.84 37.1955 105.055 35.6887L104.359 34.3663C104.234 34.1359 104.097 33.8901 103.961 33.6284C103.898 33.567 103.849 33.4898 103.787 33.4139C105.068 32.8595 105.666 32.0139 105.666 30.7066C105.666 29.7842 105.293 28.9068 104.695 28.461C104.161 28.0611 103.501 27.8921 102.418 27.8921H99.27V28.5528H100.365V37.4898H99.2695V38.1505H102.542V37.4898H101.435V33.6584L101.436 33.6589Z" fill="#1563A8"/>
<path d="M85.4142 23.4964C90.892 16.8021 93.0549 10.3977 90.5362 6.08414C85.8234 -1.98788 66.5012 0.31737 47.3787 11.2348C41.0627 14.8405 35.6664 19.1266 31.2972 23.2853H45.034C48.1666 19.2171 52.9437 15.1048 58.8393 11.7389C71.8449 4.31476 85.3266 3.33054 88.9517 9.54051C91.0365 13.1119 89.6468 18.3346 85.4155 23.4973" fill="#60C1F0"/>
<path d="M19.7027 42.1323C14.2253 48.8262 12.0629 55.2301 14.5816 59.5441C19.2948 67.6161 38.617 65.3104 57.7391 54.3934C64.0555 50.7873 69.4513 46.5008 73.821 42.3425H60.0833C56.9507 46.4111 52.1745 50.5226 46.2789 53.888C33.2741 61.3135 19.7925 62.2973 16.1665 56.0877C14.0817 52.5164 15.4723 47.2936 19.7027 42.1318" fill="#1563A8"/>
</g>
<defs>
<clipPath id="clip0">
<rect width="107" height="65" fill="white"/>
</clipPath>
</defs>
</svg>
