<svg width="38" height="38" viewBox="0 0 38 38" fill="none" xmlns="http://www.w3.org/2000/svg">
<path fill-rule="evenodd" clip-rule="evenodd" d="M32.2648 5.68015C28.7565 2.16772 24.0908 0.232529 19.1202 0.230469C8.8777 0.230469 0.541824 8.56612 0.537704 18.8113C0.536331 22.0864 1.39189 25.2834 3.0181 28.1014L0.381836 37.7305L10.2327 35.1464C12.947 36.627 16.0028 37.4073 19.1126 37.4082H19.1204C29.3617 37.4082 37.6985 29.0719 37.7024 18.8262C37.7044 13.8608 35.7734 9.19234 32.2648 5.68015ZM19.1202 34.27H19.1138C16.3425 34.2689 13.6245 33.5241 11.2528 32.1171L10.6891 31.7823L4.84343 33.3158L6.40372 27.6164L6.03636 27.0321C4.49026 24.573 3.67384 21.7307 3.67522 18.8125C3.67842 10.2969 10.6071 3.3689 19.1263 3.3689C23.2517 3.37027 27.1297 4.97885 30.0456 7.89824C32.9616 10.8176 34.5665 14.6981 34.5651 18.8251C34.5614 27.3413 27.6332 34.27 19.1202 34.27ZM27.592 22.7025C27.1278 22.47 24.845 21.3471 24.4192 21.1919C23.994 21.037 23.6841 20.9598 23.3748 21.4245C23.0652 21.8891 22.1755 22.9351 21.9045 23.2448C21.6335 23.5547 21.363 23.5936 20.8986 23.361C20.4342 23.1287 18.9382 22.6382 17.1646 21.0564C15.7844 19.8253 14.8527 18.3048 14.5817 17.8402C14.3111 17.3751 14.5794 17.148 14.7854 16.8926C15.288 16.2684 15.7913 15.6141 15.946 15.3044C16.101 14.9945 16.0234 14.7233 15.9071 14.491C15.7913 14.2586 14.8627 11.9733 14.4759 11.0433C14.0987 10.1383 13.7163 10.2605 13.4311 10.2463C13.1605 10.2328 12.8509 10.2301 12.5412 10.2301C12.2317 10.2301 11.7287 10.3461 11.3029 10.8112C10.8774 11.2761 9.6781 12.3992 9.6781 14.6846C9.6781 16.97 11.3418 19.1778 11.5739 19.4877C11.806 19.7976 14.8481 24.4874 19.5056 26.4983C20.6134 26.9771 21.4781 27.2626 22.1526 27.4766C23.265 27.83 24.2769 27.7801 25.077 27.6606C25.9692 27.5271 27.8238 26.5372 28.2111 25.4528C28.5979 24.3681 28.5979 23.4386 28.4817 23.2448C28.3658 23.0511 28.0562 22.9351 27.592 22.7025Z" fill="#FF9D56"/>
</svg>
